[Header]
FileType HTR
DataType HTRS
FileVersion 1
NumSegments 22
NumFrames 5
DataFrameRate 24
EulerRotationOrder ZYX
CalibrationUnits mm
RotationUnits Degrees
GlobalAxisofGravity Y
BoneLengthAxis Y
ScaleFactor 1.0
[SegmentNames&Hierarchy]
reference	GLOBAL
Hips	reference
Spine	Hips
Spine1	Spine
Neck	Spine1
Head	Neck
LeftShoulder	Spine1
LeftArm	LeftShoulder
LeftForeArm	LeftArm
LeftHand	LeftForeArm
RightShoulder	Spine1
RightArm	RightShoulder
RightForeArm	RightArm
RightHand	RightForeArm
LeftUpLeg	Hips
LeftLeg	LeftUpLeg
LeftFoot	LeftLeg
LeftToeBase	LeftFoot
RightUpLeg	Hips
RightLeg	RightUpLeg
RightFoot	RightLeg
RightToeBase	RightFoot
[BasePosition]
reference	0	0	0	0	0	0	1
Hips	0	0	0	0	0	0	1
Spine	0	0	0	0	-0	90	1
Spine1	0	0	0	0	0	0	1
Neck	0	0	0	-7.352327771	-7.352327771	90	1
Head	0	0	0	0	-0	90	1
LeftShoulder	0	0	0	0	0	0	1
LeftArm	0	0	0	0	0	0	1
LeftForeArm	0	0	0	0	0	0	1
LeftHand	0	0	0	0	0	0	1
RightShoulder	0	0	0	0	-0	180	1
RightArm	0	0	0	0	-0	180	1
RightForeArm	0	0	0	0	-0	180	1
RightHand	0	0	0	0	-0	180	1
LeftUpLeg	0	0	0	0	-0	-90	1
LeftLeg	0	0	0	0	-0	-90	1
LeftFoot	0	0	0	66.57146043	-66.57146043	-90	1
LeftToeBase	0	0	0	0	-90	0	1
RightUpLeg	0	0	0	0	-0	-90	1
RightLeg	0	0	0	0	-0	-90	1
RightFoot	0	0	0	66.57146043	-66.57146043	-90	1
RightToeBase	0	0	0	0	-90	0	1
[reference]
29	0	0	0	0	-0	0	1.0
30	0	0	0	0	-0	0	1.0
31	0	0	0	0	-0	0	1.0
32	0	0	0	0	-0	0	1.0
33	0	0	0	0	-0	0	1.0
[Hips]
29	2.869394064	8.492208481	0.6163186431	-6.220358372	-105.5580902	6.454699993	1.0
30	3.085646152	8.394100189	0.6434851289	-3.161922932	-104.6443939	3.128951073	1.0
31	3.356310129	8.271188736	0.6854733229	-1.213516235	-104.4127731	1.737701416	1.0
32	3.618251801	8.2594347	0.7273406982	-3.676666021	-104.6932831	4.687749386	1.0
33	3.828436375	8.255860329	0.7742130756	-5.150884628	-103.1093597	5.368692875	1.0
[Spine]
29	0	0.7457100153	0	-1.594427228	4.718057632	-89.40579987	1.0
30	0	0.7457100153	0	-1.232958078	4.506393909	-89.50531006	1.0
31	0	0.7457100153	0	-1.688238859	4.79058075	-88.94181824	1.0
32	0	0.7457100153	0	-2.784077406	5.222964287	-87.72167969	1.0
33	0	0.7457100153	0	-2.531289339	4.34768486	-87.90812683	1.0
[Spine1]
29	0	2.140589952	0	8.054998398	1.275063157	4.188262939	1.0
30	0	2.140589952	0	7.221096516	1.313759804	3.020588398	1.0
31	0	2.140589952	0	7.670761108	1.478822231	1.501565337	1.0
32	0	2.140589952	0	10.3584919	1.65785253	0.7225176096	1.0
33	0	2.140589952	0	11.5046711	1.379849434	0.5446408391	1.0
[Neck]
29	0	2.32246995	0	-25.36385536	4.899618626	-95.94226837	1.0
30	0	2.32246995	0	-23.30517006	4.922911167	-95.93171692	1.0
31	0	2.32246995	0	-22.45262718	5.138994217	-94.81056976	1.0
32	0	2.32246995	0	-24.13746262	5.289479733	-93.55939484	1.0
33	0	2.32246995	0	-24.86532211	5.280605316	-92.5692215	1.0
[Head]
29	0	1.409579992	0.1818799973	2.675805092	-2.081114531	-86.97537231	1.0
30	0	1.409579992	0.1818799973	0.5178416967	-2.064613342	-87.28355408	1.0
31	0	1.409579992	0.1818799973	-2.628793478	-1.750867844	-89.16685486	1.0
32	0	1.409579992	0.1818799973	-3.417278767	-1.56991303	-90.54051208	1.0
33	0	1.409579992	0.1818799973	-3.229115725	-1.752849102	-90.17258453	1.0
[LeftShoulder]
29	0.3668199778	1.946700096	-0.02662999928	-6.728796005	-15.29944897	5.019769192	1.0
30	0.3668199778	1.946700096	-0.02662999928	-7.652122021	-15.04858685	3.983474016	1.0
31	0.3668199778	1.946700096	-0.02662999928	-11.34466362	-14.4527626	1.803111911	1.0
32	0.3668199778	1.946700096	-0.02662999928	-12.56826305	-13.60604191	-0.5474572182	1.0
33	0.3668199778	1.946700096	-0.02662999928	-12.97498512	-13.3686409	-1.938181281	1.0
[LeftArm]
29	1.140689969	0	0	33.56311417	32.33680344	-57.72822189	1.0
30	1.140689969	0	0	34.34856796	29.2959919	-58.11589813	1.0
31	1.140689969	0	0	35.56683731	26.79500198	-58.43317795	1.0
32	1.140689969	0	0	34.36716843	20.35034752	-61.01582336	1.0
33	1.140689969	0	0	32.5527916	15.08654118	-62.84075546	1.0
[LeftForeArm]
29	2.749800205	0	0	20.48000145	-28.38256645	-42.88708496	1.0
30	2.749800205	0	0	13.38816738	-27.18852615	-35.78916931	1.0
31	2.749800205	0	0	5.546386719	-25.67259216	-26.77545547	1.0
32	2.749800205	0	0	-0.4111872315	-25.39067841	-16.92744064	1.0
33	2.749800205	0	0	-5.094835281	-32.08277512	-12.03036308	1.0
[LeftHand]
29	2.295179844	0	0	10.16317177	-9.434813499	-12.39701843	1.0
30	2.295179844	0	0	5.495335102	-11.02782631	-10.70702267	1.0
31	2.295179844	0	0	-0.2158533633	-12.53398418	-4.061598778	1.0
32	2.295179844	0	0	-4.983760357	-13.85894966	6.028669357	1.0
33	2.295179844	0	0	-9.982722282	-15.23244286	10.57703114	1.0
[RightShoulder]
29	-0.3601199985	1.946700096	-0.02662999928	-9.996934891	3.804347277	172.9667053	1.0
30	-0.3601199985	1.946700096	-0.02662999928	-9.38957119	4.023741245	173.5910339	1.0
31	-0.3601199985	1.946700096	-0.02662999928	-8.266610146	4.80663538	174.4889679	1.0
32	-0.3601199985	1.946700096	-0.02662999928	-7.699119091	5.326385498	174.3173981	1.0
33	-0.3601199985	1.946700096	-0.02662999928	-7.30812645	5.500915051	174.3317719	1.0
[RightArm]
29	-1.140689969	0	0	62.08338547	15.35574245	-114.4495468	1.0
30	-1.140689969	0	0	60.57190323	15.10594082	-114.6899567	1.0
31	-1.140689969	0	0	58.59135437	14.72195244	-114.9704819	1.0
32	-1.140689969	0	0	57.21921539	13.36617661	-113.7106094	1.0
33	-1.140689969	0	0	51.18093109	10.33693314	-113.5997543	1.0
[RightForeArm]
29	-2.749800205	0	0	-126.4588699	78.954216	35.10626221	1.0
30	-2.749800205	0	0	-123.0370941	79.07030487	37.71979523	1.0
31	-2.749800205	0	0	-99.98884583	81.36235046	60.82402039	1.0
32	-2.749800205	0	0	-45.04702759	80.32102966	116.5411758	1.0
33	-2.749800205	0	0	4.740266323	74.64457703	169.9656677	1.0
[RightHand]
29	-2.295179844	0	0	9.955665588	18.35172844	170.3096008	1.0
30	-2.295179844	0	0	10.52356339	18.42918587	171.0721436	1.0
31	-2.295179844	0	0	9.773853302	19.18103981	170.7177124	1.0
32	-2.295179844	0	0	8.332092285	19.35499573	168.8692627	1.0
33	-2.295179844	0	0	9.948674202	20.07035828	166.2513275	1.0
[LeftUpLeg]
29	0.9094099998	0	0	-11.48323154	3.629000425	91.20114136	1.0
30	0.9094099998	0	0	-15.57361412	2.466845989	90.80976868	1.0
31	0.9094099998	0	0	-21.9646492	0.893481195	91.91368103	1.0
32	0.9094099998	0	0	-27.25523376	0.3446350098	94.92431641	1.0
33	0.9094099998	0	0	-29.35348701	0.06544095278	95.6394043	1.0
[LeftLeg]
29	0	-4.498080254	0	21.88152313	-6.006686211	80.55677795	1.0
30	0	-4.498080254	0	27.81548691	-6.970500946	77.71220398	1.0
31	0	-4.498080254	0	36.41456604	-9.348190308	71.09506989	1.0
32	0	-4.498080254	0	45.12243271	-14.64290619	59.073349	1.0
33	0	-4.498080254	0	55.47436142	-17.81051254	47.28081512	1.0
[LeftFoot]
29	0	-3.729400158	0	-75.94716644	115.3457642	-22.51252747	1.0
30	0	-3.729400158	0	-73.15682983	117.2774048	-16.70023346	1.0
31	0	-3.729400158	0	-63.03498459	120.6138	-3.34481144	1.0
32	0	-3.729400158	0	-47.05958557	124.1592102	16.13912964	1.0
33	0	-3.729400158	0	-40.75294495	128.0068054	24.79742432	1.0
[LeftToeBase]
29	0	-0.5911099911	1.364109993	0	0	0	1.0
30	0	-0.5911099911	1.364109993	0	0	0	1.0
31	0	-0.5911099911	1.364109993	0	0	0	1.0
32	0	-0.5911099911	1.364109993	0	0	0	1.0
33	0	-0.5911099911	1.364109993	0	0	0	1.0
[RightUpLeg]
29	-0.9094099998	0	0	-2.781586409	-9.438713074	94.8844223	1.0
30	-0.9094099998	0	0	-1.084961176	-9.426803589	93.96646881	1.0
31	-0.9094099998	0	0	-4.852525711	-9.984796524	95.32506561	1.0
32	-0.9094099998	0	0	-10.03624535	-9.565168381	97.01499939	1.0
33	-0.9094099998	0	0	-11.62832451	-10.73117447	96.15830231	1.0
[RightLeg]
29	0	-4.498080254	0	32.8087883	0.4290961325	83.43066406	1.0
30	0	-4.498080254	0	27.5451622	-0.5942191482	84.26379395	1.0
31	0	-4.498080254	0	30.59748459	1.077413559	83.45605469	1.0
32	0	-4.498080254	0	36.62414932	1.776815534	83.25227356	1.0
33	0	-4.498080254	0	39.66238785	6.918471336	90.55397797	1.0
[RightFoot]
29	0	-3.729400158	0	66.72914886	60.84347916	120.4514999	1.0
30	0	-3.729400158	0	58.25161362	63.72931671	119.1448517	1.0
31	0	-3.729400158	0	46.26898193	67.17269135	112.6902618	1.0
32	0	-3.729400158	0	43.70295715	68.00086212	110.5595245	1.0
33	0	-3.729400158	0	22.45272827	66.63296509	86.58370972	1.0
[RightToeBase]
29	0	-0.5911099911	1.364109993	0	0	0	1.0
30	0	-0.5911099911	1.364109993	0	0	0	1.0
31	0	-0.5911099911	1.364109993	0	0	0	1.0
32	0	-0.5911099911	1.364109993	0	0	0	1.0
33	0	-0.5911099911	1.364109993	0	0	0	1.0
[EndOfFile]
